<mxfile host="app.diagrams.net" modified="2024-05-24T20:24:14.536Z" agent="Mozilla/5.0 (Windows NT 10.0; Win64; x64; rv:126.0) Gecko/20100101 Firefox/126.0" etag="SQH6nSEjIsxOdnNW44qk" version="24.4.8" type="device">
  <diagram id="kgpKYQtTHZ0yAKxKKP6v" name="Page-1">
    <mxGraphModel dx="1499" dy="818" grid="1" gridSize="10" guides="1" tooltips="1" connect="1" arrows="1" fold="1" page="1" pageScale="1" pageWidth="850" pageHeight="1100" math="0" shadow="0">
      <root>
        <mxCell id="0" />
        <mxCell id="1" parent="0" />
        <mxCell id="3nuBFxr9cyL0pnOWT2aG-1" value="FLUXO DE XESTIÓN DE RECOLLIDAS DE RESIDUOS " style="shape=table;childLayout=tableLayout;startSize=40;collapsible=0;recursiveResize=0;expand=0;fillColor=none;fontStyle=1" parent="1" vertex="1">
          <mxGeometry x="90" y="350" width="920" height="632" as="geometry" />
        </mxCell>
        <mxCell id="3nuBFxr9cyL0pnOWT2aG-3" value="Produtor de residuo" style="shape=tableRow;horizontal=0;swimlaneHead=0;swimlaneBody=0;top=0;left=0;bottom=0;right=0;fillColor=none;points=[[0,0.5],[1,0.5]];portConstraint=eastwest;startSize=40;collapsible=0;recursiveResize=0;expand=0;fontStyle=1;" parent="3nuBFxr9cyL0pnOWT2aG-1" vertex="1">
          <mxGeometry y="40" width="920" height="295" as="geometry" />
        </mxCell>
        <mxCell id="3nuBFxr9cyL0pnOWT2aG-4" value="Creación e asignación de residuo" style="swimlane;swimlaneHead=0;swimlaneBody=0;connectable=0;fillColor=none;startSize=40;collapsible=0;recursiveResize=0;expand=0;fontStyle=1;" parent="3nuBFxr9cyL0pnOWT2aG-3" vertex="1">
          <mxGeometry x="40" width="260" height="295" as="geometry">
            <mxRectangle width="260" height="295" as="alternateBounds" />
          </mxGeometry>
        </mxCell>
        <mxCell id="3nuBFxr9cyL0pnOWT2aG-17" value="&lt;div&gt;Aprobar&lt;/div&gt;&lt;div&gt;reserva&lt;br&gt;&lt;/div&gt;" style="rounded=0;whiteSpace=wrap;html=1;" parent="3nuBFxr9cyL0pnOWT2aG-4" vertex="1">
          <mxGeometry x="150" y="205" width="80" height="40" as="geometry" />
        </mxCell>
        <mxCell id="3nuBFxr9cyL0pnOWT2aG-6" value="Créase o residuo" style="rounded=1;whiteSpace=wrap;html=1;arcSize=50;" parent="3nuBFxr9cyL0pnOWT2aG-4" vertex="1">
          <mxGeometry x="60" y="65" width="90" height="40" as="geometry" />
        </mxCell>
        <mxCell id="3nuBFxr9cyL0pnOWT2aG-5" style="edgeStyle=orthogonalEdgeStyle;rounded=0;orthogonalLoop=1;jettySize=auto;html=1;" parent="3nuBFxr9cyL0pnOWT2aG-4" source="3nuBFxr9cyL0pnOWT2aG-6" edge="1">
          <mxGeometry relative="1" as="geometry">
            <mxPoint x="104.99999999999989" y="135" as="targetPoint" />
          </mxGeometry>
        </mxCell>
        <mxCell id="o36gLIh_9hx6DF4qOiNz-1" value="Ten xestor asignado?" style="rhombus;whiteSpace=wrap;html=1;" vertex="1" parent="3nuBFxr9cyL0pnOWT2aG-4">
          <mxGeometry x="60" y="135" width="90" height="80" as="geometry" />
        </mxCell>
        <mxCell id="o36gLIh_9hx6DF4qOiNz-9" value="SI" style="text;html=1;align=center;verticalAlign=middle;whiteSpace=wrap;rounded=0;" vertex="1" parent="3nuBFxr9cyL0pnOWT2aG-4">
          <mxGeometry x="130" y="150" width="60" height="30" as="geometry" />
        </mxCell>
        <mxCell id="o36gLIh_9hx6DF4qOiNz-10" value="NON" style="text;html=1;align=center;verticalAlign=middle;resizable=0;points=[];autosize=1;strokeColor=none;fillColor=none;" vertex="1" parent="3nuBFxr9cyL0pnOWT2aG-4">
          <mxGeometry x="60" y="210" width="50" height="30" as="geometry" />
        </mxCell>
        <mxCell id="3nuBFxr9cyL0pnOWT2aG-8" value="Crear ruta de recollida" style="swimlane;swimlaneHead=0;swimlaneBody=0;connectable=0;fillColor=none;startSize=40;collapsible=0;recursiveResize=0;expand=0;fontStyle=1;" parent="3nuBFxr9cyL0pnOWT2aG-3" vertex="1">
          <mxGeometry x="300" width="164" height="295" as="geometry">
            <mxRectangle width="164" height="295" as="alternateBounds" />
          </mxGeometry>
        </mxCell>
        <mxCell id="3nuBFxr9cyL0pnOWT2aG-11" value="Recoller o residuo" style="swimlane;swimlaneHead=0;swimlaneBody=0;connectable=0;fillColor=none;startSize=40;collapsible=0;recursiveResize=0;expand=0;fontStyle=1;" parent="3nuBFxr9cyL0pnOWT2aG-3" vertex="1">
          <mxGeometry x="464" width="456" height="295" as="geometry">
            <mxRectangle width="456" height="295" as="alternateBounds" />
          </mxGeometry>
        </mxCell>
        <mxCell id="3nuBFxr9cyL0pnOWT2aG-15" value="Xestor de residuo" style="shape=tableRow;horizontal=0;swimlaneHead=0;swimlaneBody=0;top=0;left=0;bottom=0;right=0;fillColor=none;points=[[0,0.5],[1,0.5]];portConstraint=eastwest;startSize=40;collapsible=0;recursiveResize=0;expand=0;fontStyle=1;" parent="3nuBFxr9cyL0pnOWT2aG-1" vertex="1">
          <mxGeometry y="335" width="920" height="297" as="geometry" />
        </mxCell>
        <mxCell id="3nuBFxr9cyL0pnOWT2aG-16" value="" style="swimlane;swimlaneHead=0;swimlaneBody=0;connectable=0;fillColor=none;startSize=0;collapsible=0;recursiveResize=0;expand=0;fontStyle=1;" parent="3nuBFxr9cyL0pnOWT2aG-15" vertex="1">
          <mxGeometry x="40" width="260" height="297" as="geometry">
            <mxRectangle width="260" height="297" as="alternateBounds" />
          </mxGeometry>
        </mxCell>
        <mxCell id="3nuBFxr9cyL0pnOWT2aG-7" value="&lt;div&gt;Solicitar&lt;/div&gt;&lt;div&gt;reserva&lt;br&gt;&lt;/div&gt;" style="rounded=0;whiteSpace=wrap;html=1;" parent="3nuBFxr9cyL0pnOWT2aG-16" vertex="1">
          <mxGeometry x="60" y="80" width="90" height="40" as="geometry" />
        </mxCell>
        <mxCell id="3nuBFxr9cyL0pnOWT2aG-18" value="" style="swimlane;swimlaneHead=0;swimlaneBody=0;connectable=0;fillColor=none;startSize=0;collapsible=0;recursiveResize=0;expand=0;fontStyle=1;" parent="3nuBFxr9cyL0pnOWT2aG-15" vertex="1">
          <mxGeometry x="300" width="164" height="297" as="geometry">
            <mxRectangle width="164" height="297" as="alternateBounds" />
          </mxGeometry>
        </mxCell>
        <mxCell id="o36gLIh_9hx6DF4qOiNz-12" style="edgeStyle=orthogonalEdgeStyle;rounded=0;orthogonalLoop=1;jettySize=auto;html=1;" edge="1" parent="3nuBFxr9cyL0pnOWT2aG-18" source="o36gLIh_9hx6DF4qOiNz-4" target="o36gLIh_9hx6DF4qOiNz-13">
          <mxGeometry relative="1" as="geometry">
            <mxPoint x="138.99999999999977" y="70" as="targetPoint" />
          </mxGeometry>
        </mxCell>
        <mxCell id="o36gLIh_9hx6DF4qOiNz-4" value="&lt;div&gt;Engadir residuo&lt;/div&gt;&lt;div&gt;a ruta&lt;br&gt;&lt;/div&gt;" style="rounded=0;whiteSpace=wrap;html=1;" vertex="1" parent="3nuBFxr9cyL0pnOWT2aG-18">
          <mxGeometry x="22" y="50" width="120" height="40" as="geometry" />
        </mxCell>
        <mxCell id="o36gLIh_9hx6DF4qOiNz-15" style="edgeStyle=orthogonalEdgeStyle;rounded=0;orthogonalLoop=1;jettySize=auto;html=1;entryX=0;entryY=0.5;entryDx=0;entryDy=0;" edge="1" parent="3nuBFxr9cyL0pnOWT2aG-18" source="o36gLIh_9hx6DF4qOiNz-13" target="o36gLIh_9hx6DF4qOiNz-14">
          <mxGeometry relative="1" as="geometry" />
        </mxCell>
        <mxCell id="o36gLIh_9hx6DF4qOiNz-13" value="&lt;div&gt;Iniciar unha&lt;/div&gt;&lt;div&gt;ruta de recollida&lt;br&gt;&lt;/div&gt;" style="rounded=0;whiteSpace=wrap;html=1;" vertex="1" parent="3nuBFxr9cyL0pnOWT2aG-18">
          <mxGeometry x="169" y="50" width="120" height="40" as="geometry" />
        </mxCell>
        <mxCell id="o36gLIh_9hx6DF4qOiNz-16" style="edgeStyle=orthogonalEdgeStyle;rounded=0;orthogonalLoop=1;jettySize=auto;html=1;" edge="1" parent="3nuBFxr9cyL0pnOWT2aG-18" source="o36gLIh_9hx6DF4qOiNz-14">
          <mxGeometry relative="1" as="geometry">
            <mxPoint x="478.9999999999998" y="70" as="targetPoint" />
          </mxGeometry>
        </mxCell>
        <mxCell id="o36gLIh_9hx6DF4qOiNz-19" style="edgeStyle=orthogonalEdgeStyle;rounded=0;orthogonalLoop=1;jettySize=auto;html=1;" edge="1" parent="3nuBFxr9cyL0pnOWT2aG-18" source="o36gLIh_9hx6DF4qOiNz-14" target="o36gLIh_9hx6DF4qOiNz-18">
          <mxGeometry relative="1" as="geometry" />
        </mxCell>
        <mxCell id="o36gLIh_9hx6DF4qOiNz-23" style="edgeStyle=orthogonalEdgeStyle;rounded=0;orthogonalLoop=1;jettySize=auto;html=1;" edge="1" parent="3nuBFxr9cyL0pnOWT2aG-18" source="o36gLIh_9hx6DF4qOiNz-17" target="o36gLIh_9hx6DF4qOiNz-22">
          <mxGeometry relative="1" as="geometry" />
        </mxCell>
        <mxCell id="o36gLIh_9hx6DF4qOiNz-17" value="&lt;div&gt;Confirmar a recollida&lt;/div&gt;&lt;div&gt;do residuo&lt;br&gt;&lt;/div&gt;" style="rounded=0;whiteSpace=wrap;html=1;" vertex="1" parent="3nuBFxr9cyL0pnOWT2aG-18">
          <mxGeometry x="479" y="50" width="120" height="40" as="geometry" />
        </mxCell>
        <mxCell id="o36gLIh_9hx6DF4qOiNz-18" value="&lt;div&gt;Rexeitar a recollida&lt;/div&gt;&lt;div&gt;do residuo&lt;br&gt;&lt;/div&gt;" style="rounded=0;whiteSpace=wrap;html=1;" vertex="1" parent="3nuBFxr9cyL0pnOWT2aG-18">
          <mxGeometry x="289" y="160" width="170" height="40" as="geometry" />
        </mxCell>
        <mxCell id="o36gLIh_9hx6DF4qOiNz-22" value="&lt;div&gt;Xestiónase&lt;/div&gt;&lt;div&gt;o residuo&lt;br&gt;&lt;/div&gt;" style="rounded=1;whiteSpace=wrap;html=1;arcSize=50;" vertex="1" parent="3nuBFxr9cyL0pnOWT2aG-18">
          <mxGeometry x="494" y="140" width="90" height="40" as="geometry" />
        </mxCell>
        <mxCell id="o36gLIh_9hx6DF4qOiNz-24" value="SI" style="text;html=1;align=center;verticalAlign=middle;whiteSpace=wrap;rounded=0;" vertex="1" parent="3nuBFxr9cyL0pnOWT2aG-18">
          <mxGeometry x="419" y="40" width="60" height="30" as="geometry" />
        </mxCell>
        <mxCell id="o36gLIh_9hx6DF4qOiNz-25" value="NON" style="text;html=1;align=center;verticalAlign=middle;resizable=0;points=[];autosize=1;strokeColor=none;fillColor=none;" vertex="1" parent="3nuBFxr9cyL0pnOWT2aG-18">
          <mxGeometry x="329" y="120" width="50" height="30" as="geometry" />
        </mxCell>
        <mxCell id="o36gLIh_9hx6DF4qOiNz-14" value="&lt;div&gt;O residuo&amp;nbsp;&lt;/div&gt;&lt;div&gt;é apto?&lt;/div&gt;" style="rhombus;whiteSpace=wrap;html=1;" vertex="1" parent="3nuBFxr9cyL0pnOWT2aG-18">
          <mxGeometry x="319" y="20" width="110" height="100" as="geometry" />
        </mxCell>
        <mxCell id="3nuBFxr9cyL0pnOWT2aG-23" value="" style="swimlane;swimlaneHead=0;swimlaneBody=0;connectable=0;fillColor=none;startSize=0;collapsible=0;recursiveResize=0;expand=0;fontStyle=1;" parent="3nuBFxr9cyL0pnOWT2aG-15" vertex="1">
          <mxGeometry x="464" width="456" height="297" as="geometry">
            <mxRectangle width="456" height="297" as="alternateBounds" />
          </mxGeometry>
        </mxCell>
        <mxCell id="o36gLIh_9hx6DF4qOiNz-21" value="&lt;div&gt;Abrir incidencia co productor&lt;br&gt;&lt;/div&gt;" style="rounded=0;whiteSpace=wrap;html=1;" vertex="1" parent="3nuBFxr9cyL0pnOWT2aG-23">
          <mxGeometry x="105" y="230" width="120" height="40" as="geometry" />
        </mxCell>
        <mxCell id="o36gLIh_9hx6DF4qOiNz-26" value="Bloquear residuo" style="rounded=0;whiteSpace=wrap;html=1;" vertex="1" parent="3nuBFxr9cyL0pnOWT2aG-23">
          <mxGeometry x="235" y="230" width="80" height="40" as="geometry" />
        </mxCell>
        <mxCell id="o36gLIh_9hx6DF4qOiNz-31" style="edgeStyle=orthogonalEdgeStyle;rounded=0;orthogonalLoop=1;jettySize=auto;html=1;" edge="1" parent="3nuBFxr9cyL0pnOWT2aG-15" source="o36gLIh_9hx6DF4qOiNz-18" target="o36gLIh_9hx6DF4qOiNz-21">
          <mxGeometry relative="1" as="geometry">
            <Array as="points">
              <mxPoint x="630" y="220" />
              <mxPoint x="629" y="220" />
            </Array>
          </mxGeometry>
        </mxCell>
        <mxCell id="o36gLIh_9hx6DF4qOiNz-33" style="edgeStyle=orthogonalEdgeStyle;rounded=0;orthogonalLoop=1;jettySize=auto;html=1;entryX=0.5;entryY=0;entryDx=0;entryDy=0;" edge="1" parent="3nuBFxr9cyL0pnOWT2aG-15" source="o36gLIh_9hx6DF4qOiNz-18" target="o36gLIh_9hx6DF4qOiNz-26">
          <mxGeometry relative="1" as="geometry">
            <Array as="points">
              <mxPoint x="739" y="210" />
              <mxPoint x="739" y="210" />
            </Array>
          </mxGeometry>
        </mxCell>
        <mxCell id="3nuBFxr9cyL0pnOWT2aG-2" value="" style="edgeStyle=orthogonalEdgeStyle;rounded=0;orthogonalLoop=1;jettySize=auto;html=1;exitX=0.5;exitY=1;exitDx=0;exitDy=0;entryX=0.5;entryY=1;entryDx=0;entryDy=0;" parent="3nuBFxr9cyL0pnOWT2aG-1" source="3nuBFxr9cyL0pnOWT2aG-7" target="3nuBFxr9cyL0pnOWT2aG-17" edge="1">
          <mxGeometry relative="1" as="geometry" />
        </mxCell>
        <mxCell id="o36gLIh_9hx6DF4qOiNz-11" style="edgeStyle=orthogonalEdgeStyle;rounded=0;orthogonalLoop=1;jettySize=auto;html=1;exitX=1;exitY=0.5;exitDx=0;exitDy=0;entryX=0.25;entryY=0;entryDx=0;entryDy=0;" edge="1" parent="3nuBFxr9cyL0pnOWT2aG-1" source="3nuBFxr9cyL0pnOWT2aG-17" target="o36gLIh_9hx6DF4qOiNz-4">
          <mxGeometry relative="1" as="geometry" />
        </mxCell>
        <mxCell id="o36gLIh_9hx6DF4qOiNz-6" style="edgeStyle=orthogonalEdgeStyle;rounded=0;orthogonalLoop=1;jettySize=auto;html=1;" edge="1" parent="3nuBFxr9cyL0pnOWT2aG-1" source="o36gLIh_9hx6DF4qOiNz-1" target="3nuBFxr9cyL0pnOWT2aG-7">
          <mxGeometry relative="1" as="geometry" />
        </mxCell>
        <mxCell id="o36gLIh_9hx6DF4qOiNz-7" value="" style="edgeStyle=orthogonalEdgeStyle;rounded=0;orthogonalLoop=1;jettySize=auto;html=1;entryX=0.75;entryY=0;entryDx=0;entryDy=0;" edge="1" parent="3nuBFxr9cyL0pnOWT2aG-1" source="o36gLIh_9hx6DF4qOiNz-1" target="o36gLIh_9hx6DF4qOiNz-4">
          <mxGeometry relative="1" as="geometry" />
        </mxCell>
      </root>
    </mxGraphModel>
  </diagram>
</mxfile>
